<?xml version="1.0" encoding="UTF-8" standalone="no"?>
<svg
   xmlns:dc="http://purl.org/dc/elements/1.1/"
   xmlns:cc="http://creativecommons.org/ns#"
   xmlns:rdf="http://www.w3.org/1999/02/22-rdf-syntax-ns#"
   xmlns:svg="http://www.w3.org/2000/svg"
   xmlns="http://www.w3.org/2000/svg"
   xmlns:sodipodi="http://sodipodi.sourceforge.net/DTD/sodipodi-0.dtd"
   xmlns:inkscape="http://www.inkscape.org/namespaces/inkscape"
   viewBox="0 0 379.18417 376.76294"
   id="svg2"
   version="1.1"
   inkscape:version="0.48.5 r10040"
   width="100%"
   height="100%"
   sodipodi:docname="pecora.svg">
  <metadata
     id="metadata44">
    <rdf:RDF>
      <cc:Work
         rdf:about="">
        <dc:format>image/svg+xml</dc:format>
        <dc:type
           rdf:resource="http://purl.org/dc/dcmitype/StillImage" />
        <dc:title />
      </cc:Work>
    </rdf:RDF>
  </metadata>
  <defs
     id="defs42" />
  <sodipodi:namedview
     pagecolor="#ffffff"
     bordercolor="#666666"
     borderopacity="1"
     objecttolerance="10"
     gridtolerance="10"
     guidetolerance="10"
     inkscape:pageopacity="0"
     inkscape:pageshadow="2"
     inkscape:window-width="1920"
     inkscape:window-height="1016"
     id="namedview40"
     showgrid="false"
     inkscape:zoom="1.8311037"
     inkscape:cx="268.95452"
     inkscape:cy="198.53094"
     inkscape:window-x="0"
     inkscape:window-y="27"
     inkscape:window-maximized="1"
     inkscape:current-layer="svg2" />
  <path
     inkscape:connector-curvature="0"
     id="path6"
     d="m 343.73599,326.5641 c 0,8.15492 -61.15053,14.76579 -136.58352,14.76579 -75.43299,0 -136.58353,-6.61087 -136.58353,-14.76579 0,-8.15492 61.15053,-14.76579 136.58353,-14.76579 75.433,0 136.58352,6.61087 136.58352,14.76579 z"
     style="stroke:#000000;stroke-opacity:1;fill:#008000;fill-opacity:1;stroke-width:2.5;stroke-miterlimit:4;stroke-dasharray:none" />
  <path
     style="fill:#ffffff;stroke:#000000;stroke-width:3.59998608;stroke-linecap:round;stroke-linejoin:round"
     inkscape:connector-curvature="0"
     id="path8"
     d="m 160.83458,255.95421 c -13.3324,41.11317 -27.91352,73.21844 -32.56784,71.70911 -4.65432,-1.50933 2.38065,-36.0617 15.71305,-77.17487 13.3324,-41.11317 27.91353,-73.21844 32.56785,-71.70911 4.65432,1.50933 -2.38066,36.06169 -15.71306,77.17487 z" />
  <path
     style="fill:#ffffff;stroke:#000000;stroke-width:3.59998608;stroke-linecap:round;stroke-linejoin:round"
     inkscape:connector-curvature="0"
     id="path10"
     d="m 186.11687,255.95421 c -13.3324,41.11317 -27.91352,73.21844 -32.56784,71.70911 -4.65432,-1.50933 2.38065,-36.0617 15.71305,-77.17487 13.3324,-41.11317 27.91353,-73.21844 32.56785,-71.70911 4.65432,1.50933 -2.38066,36.06169 -15.71306,77.17487 z" />
  <path
     style="fill:#ffffff;stroke:#000000;stroke-width:3.59999681;stroke-linecap:round;stroke-linejoin:round"
     inkscape:connector-curvature="0"
     id="path12"
     d="m 262.54528,249.01349 c 6.6366,42.70846 8.09714,77.93957 3.26222,78.69088 -4.83492,0.75131 -14.13442,-33.26168 -20.77101,-75.97014 -6.6366,-42.70846 -8.09714,-77.93958 -3.26222,-78.69089 4.83492,-0.75132 14.13442,33.26168 20.77101,75.97015 z" />
  <path
     style="fill:#ffffff;stroke:#000000;stroke-width:3.59999681;stroke-linecap:round;stroke-linejoin:round"
     inkscape:connector-curvature="0"
     id="path14"
     d="m 287.34943,249.01349 c 6.6366,42.70846 8.09714,77.93957 3.26222,78.69088 -4.83492,0.75131 -14.13442,-33.26168 -20.77101,-75.97014 -6.6366,-42.70846 -8.09714,-77.93958 -3.26222,-78.69089 4.83492,-0.75132 14.13442,33.26168 20.77101,75.97015 z" />
  <path
     style="fill:#ffffff;stroke:#000000;stroke-width:3.5999999;stroke-linecap:round;stroke-linejoin:round"
     inkscape:connector-curvature="0"
     id="path16"
     d="m 233.74846,63.04971 c -8.83623,0 -16.55595,4.79367 -20.71875,11.90625 -4.35802,-6.0257 -11.43264,-9.9375 -19.4375,-9.9375 -9.93707,0 -18.45184,6.0458 -22.09375,14.65625 -4.29621,-6.47445 -11.67887,-10.75 -20.03125,-10.75 -12.72624,0 -23.10383,9.91388 -23.90625,22.4375 -3.37591,-1.81349 -7.24327,-2.84375 -11.34375,-2.84375 -13.24943,0 -23.96875,10.75057 -23.96875,24 0,1.86198 0.19235,3.66621 0.59375,5.40625 -12.84828,0.4559 -23.125,11.00923 -23.125,23.96875 0,7.8822 3.78683,14.87676 9.65625,19.25 -12.03516,1.28789 -21.40625,11.43541 -21.40625,23.8125 0,11.42595 7.99149,20.99117 18.6875,23.40625 -3.69296,4.21955 -5.96875,9.73334 -5.96875,15.78125 0,13.24943 10.75057,23.96875 24,23.96875 5.38258,0 10.34116,-1.75664 14.34375,-4.75 -0.71978,2.28089 -1.125,4.69998 -1.125,7.21875 0,13.24943 10.75057,23.96875 24,23.96875 6.18213,0 11.80857,-2.3545 16.0625,-6.1875 1.32961,0.5514 2.67214,1.08523 4.03125,1.59375 0.41899,12.88253 10.98483,23.21875 23.96875,23.21875 9.99622,0 18.55127,-6.12016 22.15625,-14.8125 3.06645,9.71722 12.14435,16.75 22.875,16.75 11.72359,0 21.47013,-8.38428 23.5625,-19.5 3.40607,9.10341 12.1768,15.59375 22.46873,15.59375 13.2495,0 24,-10.75057 24,-24 0,-2.48427 -0.3928,-4.87139 -1.0937,-7.125 3.9904,2.96162 8.9614,4.6875 14.3125,4.6875 13.2494,0 23.9688,-10.75057 23.9688,-24 0,-6.03531 -2.2271,-11.53382 -5.9063,-15.75 10.6809,-2.42618 18.6563,-11.99099 18.6563,-23.40625 0,-9.27364 -5.2678,-17.31957 -12.9688,-21.3125 8.2232,-3.80459 13.9375,-12.1251 13.9375,-21.78125 0,-12.61212 -9.7294,-22.90956 -22.0937,-23.875 0.9856,-2.624 1.5312,-5.46909 1.5312,-8.4375 0,-13.24943 -10.7506,-23.96875 -24,-23.96875 -1.862,0 -3.6661,0.19235 -5.4062,0.59375 -0.4559,-12.84828 -11.0093,-23.125 -23.9688,-23.125 -3.86623,0 -7.51563,0.93799 -10.75003,2.5625 -2.2138,-10.96192 -11.88549,-19.21875 -23.5,-19.21875 z" />
  <g
     id="g18"
     transform="translate(-109.59604,-288.73083)">
    <path
       style="fill:#ffffff;stroke:#000000;stroke-width:4.25504017;stroke-linecap:round;stroke-linejoin:round"
       inkscape:connector-curvature="0"
       id="path20"
       d="m 358.11328,450.31244 c 5.31048,24.786 -5.51948,40.50538 -24.18939,35.11022 -18.66991,-5.39516 -11.25694,-31.3959 -16.56742,-56.1819 -5.31048,-24.786 -21.33344,-38.9713 -2.66352,-33.57613 18.66992,5.39517 38.10986,29.86182 43.42033,54.64781 z" />
    <path
       style="fill:#ffffff;stroke:#000000;stroke-width:4.25504017;stroke-linecap:round;stroke-linejoin:round"
       inkscape:connector-curvature="0"
       id="path22"
       d="m 149.16702,449.14887 c -6.54291,24.48953 3.48769,40.73066 22.40397,36.27556 18.91628,-4.4551 12.81236,-30.7939 19.35526,-55.28344 6.5429,-24.48954 23.25496,-37.85611 4.33868,-33.401 -18.91628,4.45511 -39.55501,27.91935 -46.09791,52.40888 z" />
    <path
       style="fill:#ffffff;stroke:#000000;stroke-width:3.5999999;stroke-linecap:round;stroke-linejoin:round"
       inkscape:connector-curvature="0"
       id="path24"
       d="m 312.69431,446.95473 c 0,47.58977 -26.30396,68.16891 -58.75153,68.16891 -32.44757,0 -58.75153,-20.57914 -58.75153,-68.16891 0,-47.58977 26.30395,-104.16891 58.75153,-104.16891 32.44758,0 58.75153,56.57914 58.75153,104.16891 z" />
    <path
       style="fill:#ffffff;stroke:#000000;stroke-width:3.5999999;stroke-linecap:round;stroke-linejoin:round"
       inkscape:connector-curvature="0"
       id="path26"
       transform="translate(154.06516,-319.85786)"
       d="m 94.98164,714.05127 c 0,15.4126 -15.12478,27.90698 -33.78213,27.90698 -18.65735,0 -33.78213,-12.49438 -33.78213,-27.90698 0,-15.4126 15.12478,-27.90698 33.78213,-27.90698 18.65735,0 33.78213,12.49438 33.78213,27.90698 z" />
    <path
       style="fill:#ffffff;stroke:#000000;stroke-width:3.5999999;stroke-linecap:round;stroke-linejoin:round"
       inkscape:connector-curvature="0"
       id="path28"
       transform="translate(142.31486,-313.00351)"
       d="m 180.17136,708.66571 c 0,20.00934 -16.22077,36.23011 -36.23011,36.23011 -20.00934,0 -36.23011,-16.22077 -36.23011,-36.23011 0,-20.00934 16.22078,-36.23011 36.23011,-36.23011 20.00933,0 36.23011,16.22077 36.23011,36.23011 z" />
    <path
       inkscape:connector-curvature="0"
       id="path30"
       d="m 226.93557,482.4146 c 7.07005,7.12321 15.81836,10.40625 25.40625,10.40625 7.02172,0 13.59283,-1.76387 19.375,-5.5 l 1.53125,2.625 c -6.2766,4.02039 -13.40164,6 -20.90625,6 -1.11148,0 -2.21816,-0.039 -3.3125,-0.125 -0.7534,7.10379 -0.27662,13.20607 3.625,17.34375 l -2.625,2.46875 c -5.00415,-5.30693 -5.38193,-12.67342 -4.5625,-20.25 -7.6211,-1.28836 -14.67253,-4.78765 -20.5625,-10.625 0.67575,-0.78775 1.35793,-1.56292 2.03125,-2.34375 z" />
    <path
       style="stroke:#000000;stroke-width:3.5999999;stroke-linecap:round;stroke-linejoin:round"
       inkscape:connector-curvature="0"
       id="path32"
       d="m 235.51429,400.45272 c 0,4.48521 -3.63598,8.12118 -8.12118,8.12118 -4.4852,0 -8.12118,-3.63597 -8.12118,-8.12118 0,-4.48521 3.63597,-8.12118 8.12118,-8.12118 4.48521,0 8.12118,3.63598 8.12118,8.12118 z" />
    <path
       style="stroke:#000000;stroke-width:3.5999999;stroke-linecap:round;stroke-linejoin:round"
       inkscape:connector-curvature="0"
       id="path34"
       d="m 276.85849,399.71443 c 0,4.48521 -3.63597,8.12118 -8.12118,8.12118 -4.48521,0 -8.12118,-3.63597 -8.12118,-8.12118 0,-4.48521 3.63597,-8.12118 8.12118,-8.12118 4.48521,0 8.12118,3.63598 8.12118,8.12118 z" />
  </g>
  <path
     style="fill:#ffffff;stroke:#000000;stroke-width:3.5999999"
     inkscape:connector-curvature="0"
     id="path36"
     d="m 191.3855,203.37649 c 4.29451,-11.32589 0.26152,-21.18343 -7.43444,-30.15912 6.33808,1.55299 16.17763,3.66809 14.56264,12.82898 -1.13103,6.66102 -3.92852,12.8932 -7.1282,17.33014 z" />
  <path
     inkscape:connector-curvature="0"
     id="path38"
     d="m 184.80619,165.98907 c -10.16525,-1.66565 -12.95921,9.20952 -10.00374,15.89198 -10.01279,-10.34569 -2.89294,-22.27004 10.00374,-15.89198 z" />
  <path
     style="fill:#ffd5d5;fill-opacity:1;fill-rule:nonzero;stroke:none"
     d="m 142.5723,223.77297 c -1.64755,-2.07202 -2.58529,-4.28675 -3.07431,-7.26083 -0.33037,-2.00917 -0.36936,-5.69857 -0.0913,-8.64042 l 0.0639,-0.67579 3.10183,-0.003 c 3.23109,-0.003 4.71999,-0.11399 7.20482,-0.53874 3.65838,-0.62535 7.67179,-1.97935 10.95741,-3.69669 1.26866,-0.6631 2.82021,-1.57628 2.90139,-1.70764 0.0522,-0.0844 -1.40701,-2.68969 -1.50827,-2.69301 -0.0302,-9.9e-4 -0.52984,0.28458 -1.11022,0.6346 -3.35547,2.02364 -7.64379,3.59503 -11.68398,4.28139 -2.16844,0.36839 -3.94331,0.50897 -6.55555,0.51925 -2.54561,0.01 -3.79855,-0.0774 -6.03382,-0.42081 -7.04254,-1.08208 -13.47762,-4.2743 -18.65856,-9.25587 -0.64027,-0.61564 -0.76869,-0.70091 -0.87643,-0.58196 -0.72308,0.79827 -1.89713,2.20739 -1.89713,2.27698 0,0.19856 2.02766,2.02973 3.61995,3.26915 4.5091,3.50983 9.9331,6.00658 15.52702,7.14733 l 1.33514,0.27227 -0.0435,0.58604 c -0.024,0.32233 -0.10113,1.66442 -0.17149,2.98243 -0.28712,5.37853 0.38352,9.35667 2.16747,12.8571 0.27061,0.53098 0.50908,1.00444 0.52994,1.05214 0.0515,0.11769 -1.29586,0.004 -3.41491,-0.28765 -13.04885,-1.79714 -23.96064,-7.40594 -32.00881,-16.45296 -7.681563,-8.6349 -12.649142,-20.62468 -14.519299,-35.04385 -0.600711,-4.63157 -0.847876,-8.79113 -0.846143,-14.23981 0.0018,-5.60019 0.249333,-9.94165 0.891781,-15.63965 0.434229,-3.85127 1.367834,-10.0168 1.547429,-10.21923 0.04021,-0.0453 0.500876,0.0781 1.023692,0.27417 3.254236,1.22073 6.60701,2.00626 10.38266,2.4326 2.06606,0.23329 6.70266,0.23074 8.71764,-0.005 8.04351,-0.94026 14.70646,-3.5993 20.41843,-8.14856 1.20392,-0.95886 3.93082,-3.69073 4.84034,-4.84916 1.65637,-2.10969 3.08953,-4.48476 3.90181,-6.46621 l 0.21683,-0.52893 0.10597,0.43239 c 0.57789,2.35799 1.29402,4.55442 2.1053,6.45721 4.96097,11.63546 15.53074,20.1271 27.93566,22.4432 2.74874,0.51321 3.67461,0.58914 7.13726,0.58532 3.36484,-0.004 4.05569,-0.0583 6.75787,-0.53344 5.25872,-0.92476 10.60301,-3.15275 15.04936,-6.27395 0.60454,-0.42437 1.10855,-0.75937 1.12003,-0.74444 0.0394,0.0513 0.53176,3.79288 0.72132,5.48172 0.24806,2.2098 0.55037,5.81541 0.70019,8.3508 0.15896,2.69019 0.1576,11.42165 -0.002,13.80537 -0.34659,5.17164 -0.69905,7.97713 -1.72532,13.73297 -0.0308,0.17257 -0.0828,0.31217 -0.11572,0.31023 -0.0329,-0.002 -0.17863,-0.19126 -0.32389,-0.42071 -0.36995,-0.58437 -1.24327,-1.54421 -1.94321,-2.13571 -1.8616,-1.57321 -4.62165,-2.91826 -7.92949,-3.86426 -1.53467,-0.4389 -9.93117,-2.54682 -9.97578,-2.5044 -0.0176,0.0168 1.10895,1.41349 2.5035,3.10384 2.78073,3.37054 3.74763,4.63066 4.83977,6.30747 2.05464,3.15457 3.33782,5.95403 4.12531,8.99998 0.58433,2.2602 0.72227,3.36246 0.71609,5.72254 -0.004,1.62006 -0.0476,2.27707 -0.21571,3.27032 -0.23612,1.39486 -0.66025,3.1394 -1.01717,4.18379 -0.60746,1.7775 -4.90797,6.8716 -8.41491,9.96773 -7.74971,6.84191 -17.83372,11.11073 -29.31846,12.41127 -2.19539,0.2486 -5.25629,0.42979 -7.21709,0.4272 l -1.88255,-0.003 -0.59182,-0.74429 -3e-5,3e-5 z m 32.05867,-42.50574 c -0.67078,-1.69328 -0.99726,-4.09441 -0.82065,-6.03561 0.26332,-2.8943 1.23035,-5.19294 2.90182,-6.89762 1.82132,-1.8575 4.26888,-2.68697 7.08298,-2.40037 0.52394,0.0534 0.97392,0.0757 0.99996,0.0497 0.14727,-0.14728 -2.72196,-1.21833 -4.07649,-1.52171 -1.09865,-0.24606 -3.33769,-0.3431 -4.26093,-0.18466 -3.97627,0.6824 -6.38923,3.54072 -6.4031,7.58495 -0.009,2.66716 1.03583,5.43856 3.07496,8.15517 0.56533,0.75316 1.65392,1.96343 1.71294,1.90441 0.0188,-0.0188 -0.0764,-0.3132 -0.21149,-0.65425 l 0,0 z"
     id="path3802"
     inkscape:connector-curvature="0" />
  <path
     style="fill:#ffd5d5;fill-opacity:1;fill-rule:nonzero;stroke:none"
     d="m 226.69963,194.88009 c -6.39693,-1.34726 -9.99159,-4.89608 -12.00822,-11.85503 -1.12848,-3.89414 -1.68887,-9.06159 -2.34092,-21.58598 -0.69474,-13.34436 -1.8689,-20.98164 -4.51216,-29.34903 l -0.68543,-2.16976 1.09063,-1.59776 c 2.42814,-3.55723 4.61009,-8.48834 5.46375,-12.34784 0.18269,-0.826 0.38239,-1.66113 0.44376,-1.85584 0.2603,-0.82582 6.58809,4.22626 10.91025,8.71071 11.1,11.51677 18.94086,26.70927 21.75844,42.15929 0.79927,4.38273 0.86401,11.97546 0.13127,15.39311 -1.46714,6.843 -4.48321,11.37428 -8.99643,13.51605 -3.48097,1.65192 -6.7289,1.93532 -11.25494,0.98208 l 0,0 z"
     id="path3804"
     inkscape:connector-curvature="0" />
  <path
     style="fill:#ffd5d5;fill-opacity:1;fill-rule:nonzero;stroke:none"
     d="m 52.941537,194.85649 c -3.056543,-0.50846 -5.624122,-1.97751 -8.065914,-4.61493 -5.937119,-6.4128 -6.624117,-18.91829 -1.827541,-33.26691 4.82799,-14.4426 14.790804,-28.80853 26.313446,-37.94281 3.212642,-2.54673 2.983168,-2.51758 4.176904,-0.53061 0.563677,0.93823 1.53952,2.38171 2.168542,3.20771 1.311783,1.72257 4.971147,5.27302 6.473039,6.28037 0.559782,0.37545 1.018626,0.76266 1.019653,0.86046 0.0011,0.0978 -0.53565,1.57233 -1.192614,3.27672 -2.112379,5.48024 -3.55744,10.81718 -4.65205,17.18109 -0.621928,3.6158 -0.946126,6.25556 -2.227706,18.1388 -1.304068,12.09178 -2.582672,17.13381 -5.431716,21.41939 -2.15908,3.24771 -5.019674,4.98169 -9.675519,5.86488 -2.457748,0.46623 -4.783707,0.50758 -7.078524,0.12584 l 0,0 z"
     id="path3806"
     inkscape:connector-curvature="0" />
  <path
     style="fill:#ffd5d5;fill-opacity:1;fill-rule:nonzero;stroke:none"
     d="m 128.98211,324.95376 c -0.0988,-0.0988 -0.17967,-1.17368 -0.17967,-2.38858 0,-6.5573 2.68256,-20.72353 7.1913,-37.97633 2.48525,-9.50987 2.20442,-8.84997 4.00414,-9.40888 2.05899,-0.63943 5.42798,-2.34678 7.04352,-3.56954 1.26575,-0.95801 1.387,-0.99463 2.1838,-0.6596 0.67457,0.28364 0.87703,0.56393 1.01025,1.39865 0.0916,0.57417 0.36839,1.95767 0.615,3.07446 l 0.44838,2.03053 -0.7708,2.20189 c -1.40285,4.00746 -6.06392,15.8013 -8.48509,21.46974 -5.38543,12.60836 -12.07533,24.81315 -13.06083,23.82766 z"
     id="path3808"
     inkscape:connector-curvature="0" />
  <path
     style="fill:#ffd5d5;fill-opacity:1;fill-rule:nonzero;stroke:none"
     d="m 154.19832,322.25368 c -0.001,-3.54733 0.39031,-6.97993 1.5095,-13.22602 0.75117,-4.19219 3.13457,-15.19969 3.85029,-17.78219 l 0.42546,-1.53516 2.32061,1.45692 c 2.27766,1.42997 4.19614,2.28327 6.54721,2.91208 0.65066,0.17403 1.18302,0.40309 1.18302,0.50904 0,0.10594 -1.17491,2.93734 -2.61092,6.29199 -4.78713,11.18324 -9.69504,20.52777 -12.52552,23.84824 l -0.69829,0.81917 -0.001,-3.29407 0,0 z"
     id="path3810"
     inkscape:connector-curvature="0" />
  <path
     style="fill:#ffd5d5;fill-opacity:1;fill-rule:nonzero;stroke:none"
     d="m 264.80662,324.34793 c -2.04632,-2.87378 -5.50448,-13.34576 -8.7112,-26.37917 -0.88681,-3.60439 -1.68524,-6.94277 -1.77429,-7.41863 l -0.16189,-0.86521 1.14923,0.66187 c 1.63395,0.94104 5.69058,2.19844 8.23017,2.55104 1.19124,0.16539 2.2021,0.33692 2.24636,0.38119 0.0443,0.0443 0.28083,3.2679 0.52572,7.16364 0.52579,8.36458 0.39075,19.20333 -0.2801,22.48211 -0.22721,1.11046 -0.46391,2.06983 -0.52601,2.13193 -0.0621,0.0621 -0.3762,-0.25685 -0.69799,-0.70877 l 0,0 z"
     id="path3812"
     inkscape:connector-curvature="0" />
  <path
     style="fill:#ffd5d5;fill-opacity:1;fill-rule:nonzero;stroke:none"
     d="m 289.15788,323.54537 c -2.5148,-4.57442 -6.7658,-18.31313 -9.58018,-30.96195 l -0.52993,-2.38169 1.2657,-0.73491 c 3.09502,-1.79707 5.74612,-4.26735 7.96842,-7.42489 l 1.21599,-1.72774 0.46603,4.86792 c 0.94665,9.88826 1.38429,18.09619 1.40976,26.43962 0.0219,7.18603 -0.0499,8.84642 -0.47549,10.99064 -0.27573,1.38919 -0.58308,2.52579 -0.68299,2.52579 -0.0999,0 -0.5757,-0.71675 -1.05731,-1.59279 l 0,0 z"
     id="path3814"
     inkscape:connector-curvature="0" />
  <path
     style="fill:#ff0000;fill-opacity:1;fill-rule:nonzero;stroke:none"
     d="m 194.76515,190.43683 c -0.44937,-3.58984 -2.62299,-9.18072 -4.79868,-12.34298 -0.4788,-0.69591 -0.82613,-1.30972 -0.77184,-1.36401 0.19725,-0.19724 4.4831,1.97852 5.35883,2.72048 1.05996,0.89804 1.8879,2.41308 2.11855,3.87671 0.16875,1.07078 -0.61186,5.53075 -1.33136,7.60666 l -0.3771,1.08804 -0.1984,-1.5849 z"
     id="path3816"
     inkscape:connector-curvature="0" />
</svg>
