<?xml version="1.0" encoding="UTF-8" standalone="no"?>
<svg
   xmlns:dc="http://purl.org/dc/elements/1.1/"
   xmlns:cc="http://creativecommons.org/ns#"
   xmlns:rdf="http://www.w3.org/1999/02/22-rdf-syntax-ns#"
   xmlns:svg="http://www.w3.org/2000/svg"
   xmlns="http://www.w3.org/2000/svg"
   xmlns:sodipodi="http://sodipodi.sourceforge.net/DTD/sodipodi-0.dtd"
   xmlns:inkscape="http://www.inkscape.org/namespaces/inkscape"
   viewBox="0 0 379.18417 376.76294"
   id="svg2"
   version="1.1"
   inkscape:version="0.48.5 r10040"
   width="100%"
   height="100%"
   sodipodi:docname="pecora.svg">
  <metadata
     id="metadata44">
    <rdf:RDF>
      <cc:Work
         rdf:about="">
        <dc:format>image/svg+xml</dc:format>
        <dc:type
           rdf:resource="http://purl.org/dc/dcmitype/StillImage" />
        <dc:title></dc:title>
      </cc:Work>
    </rdf:RDF>
  </metadata>
  <defs
     id="defs42" />
  <sodipodi:namedview
     pagecolor="#ffffff"
     bordercolor="#666666"
     borderopacity="1"
     objecttolerance="10"
     gridtolerance="10"
     guidetolerance="10"
     inkscape:pageopacity="0"
     inkscape:pageshadow="2"
     inkscape:window-width="1920"
     inkscape:window-height="1043"
     id="namedview40"
     showgrid="false"
     inkscape:zoom="2.1752322"
     inkscape:cx="190.51153"
     inkscape:cy="188.38147"
     inkscape:window-x="0"
     inkscape:window-y="0"
     inkscape:window-maximized="1"
     inkscape:current-layer="svg2" />
  <path
     inkscape:connector-curvature="0"
     id="path6"
     d="m 343.73599,326.5641 c 0,8.15492 -61.15053,14.76579 -136.58352,14.76579 -75.43299,0 -136.58353,-6.61087 -136.58353,-14.76579 0,-8.15492 61.15053,-14.76579 136.58353,-14.76579 75.433,0 136.58352,6.61087 136.58352,14.76579 z" />
  <path
     style="fill:#ffffff;stroke:#000000;stroke-width:3.59998608;stroke-linecap:round;stroke-linejoin:round"
     inkscape:connector-curvature="0"
     id="path8"
     d="m 160.83458,255.95421 c -13.3324,41.11317 -27.91352,73.21844 -32.56784,71.70911 -4.65432,-1.50933 2.38065,-36.0617 15.71305,-77.17487 13.3324,-41.11317 27.91353,-73.21844 32.56785,-71.70911 4.65432,1.50933 -2.38066,36.06169 -15.71306,77.17487 z" />
  <path
     style="fill:#ffffff;stroke:#000000;stroke-width:3.59998608;stroke-linecap:round;stroke-linejoin:round"
     inkscape:connector-curvature="0"
     id="path10"
     d="m 186.11687,255.95421 c -13.3324,41.11317 -27.91352,73.21844 -32.56784,71.70911 -4.65432,-1.50933 2.38065,-36.0617 15.71305,-77.17487 13.3324,-41.11317 27.91353,-73.21844 32.56785,-71.70911 4.65432,1.50933 -2.38066,36.06169 -15.71306,77.17487 z" />
  <path
     style="fill:#ffffff;stroke:#000000;stroke-width:3.59999681;stroke-linecap:round;stroke-linejoin:round"
     inkscape:connector-curvature="0"
     id="path12"
     d="m 262.54528,249.01349 c 6.6366,42.70846 8.09714,77.93957 3.26222,78.69088 -4.83492,0.75131 -14.13442,-33.26168 -20.77101,-75.97014 -6.6366,-42.70846 -8.09714,-77.93958 -3.26222,-78.69089 4.83492,-0.75132 14.13442,33.26168 20.77101,75.97015 z" />
  <path
     style="fill:#ffffff;stroke:#000000;stroke-width:3.59999681;stroke-linecap:round;stroke-linejoin:round"
     inkscape:connector-curvature="0"
     id="path14"
     d="m 287.34943,249.01349 c 6.6366,42.70846 8.09714,77.93957 3.26222,78.69088 -4.83492,0.75131 -14.13442,-33.26168 -20.77101,-75.97014 -6.6366,-42.70846 -8.09714,-77.93958 -3.26222,-78.69089 4.83492,-0.75132 14.13442,33.26168 20.77101,75.97015 z" />
  <path
     style="fill:#ffffff;stroke:#000000;stroke-width:3.5999999;stroke-linecap:round;stroke-linejoin:round"
     inkscape:connector-curvature="0"
     id="path16"
     d="m 233.74846,63.04971 c -8.83623,0 -16.55595,4.79367 -20.71875,11.90625 -4.35802,-6.0257 -11.43264,-9.9375 -19.4375,-9.9375 -9.93707,0 -18.45184,6.0458 -22.09375,14.65625 -4.29621,-6.47445 -11.67887,-10.75 -20.03125,-10.75 -12.72624,0 -23.10383,9.91388 -23.90625,22.4375 -3.37591,-1.81349 -7.24327,-2.84375 -11.34375,-2.84375 -13.24943,0 -23.96875,10.75057 -23.96875,24 0,1.86198 0.19235,3.66621 0.59375,5.40625 -12.84828,0.4559 -23.125,11.00923 -23.125,23.96875 0,7.8822 3.78683,14.87676 9.65625,19.25 -12.03516,1.28789 -21.40625,11.43541 -21.40625,23.8125 0,11.42595 7.99149,20.99117 18.6875,23.40625 -3.69296,4.21955 -5.96875,9.73334 -5.96875,15.78125 0,13.24943 10.75057,23.96875 24,23.96875 5.38258,0 10.34116,-1.75664 14.34375,-4.75 -0.71978,2.28089 -1.125,4.69998 -1.125,7.21875 0,13.24943 10.75057,23.96875 24,23.96875 6.18213,0 11.80857,-2.3545 16.0625,-6.1875 1.32961,0.5514 2.67214,1.08523 4.03125,1.59375 0.41899,12.88253 10.98483,23.21875 23.96875,23.21875 9.99622,0 18.55127,-6.12016 22.15625,-14.8125 3.06645,9.71722 12.14435,16.75 22.875,16.75 11.72359,0 21.47013,-8.38428 23.5625,-19.5 3.40607,9.10341 12.1768,15.59375 22.46873,15.59375 13.2495,0 24,-10.75057 24,-24 0,-2.48427 -0.3928,-4.87139 -1.0937,-7.125 3.9904,2.96162 8.9614,4.6875 14.3125,4.6875 13.2494,0 23.9688,-10.75057 23.9688,-24 0,-6.03531 -2.2271,-11.53382 -5.9063,-15.75 10.6809,-2.42618 18.6563,-11.99099 18.6563,-23.40625 0,-9.27364 -5.2678,-17.31957 -12.9688,-21.3125 8.2232,-3.80459 13.9375,-12.1251 13.9375,-21.78125 0,-12.61212 -9.7294,-22.90956 -22.0937,-23.875 0.9856,-2.624 1.5312,-5.46909 1.5312,-8.4375 0,-13.24943 -10.7506,-23.96875 -24,-23.96875 -1.862,0 -3.6661,0.19235 -5.4062,0.59375 -0.4559,-12.84828 -11.0093,-23.125 -23.9688,-23.125 -3.86623,0 -7.51563,0.93799 -10.75003,2.5625 -2.2138,-10.96192 -11.88549,-19.21875 -23.5,-19.21875 z" />
  <g
     id="g18"
     transform="translate(-109.59604,-288.73083)">
    <path
       style="fill:#ffffff;stroke:#000000;stroke-width:4.25504017;stroke-linecap:round;stroke-linejoin:round"
       inkscape:connector-curvature="0"
       id="path20"
       d="m 358.11328,450.31244 c 5.31048,24.786 -5.51948,40.50538 -24.18939,35.11022 -18.66991,-5.39516 -11.25694,-31.3959 -16.56742,-56.1819 -5.31048,-24.786 -21.33344,-38.9713 -2.66352,-33.57613 18.66992,5.39517 38.10986,29.86182 43.42033,54.64781 z" />
    <path
       style="fill:#ffffff;stroke:#000000;stroke-width:4.25504017;stroke-linecap:round;stroke-linejoin:round"
       inkscape:connector-curvature="0"
       id="path22"
       d="m 149.16702,449.14887 c -6.54291,24.48953 3.48769,40.73066 22.40397,36.27556 18.91628,-4.4551 12.81236,-30.7939 19.35526,-55.28344 6.5429,-24.48954 23.25496,-37.85611 4.33868,-33.401 -18.91628,4.45511 -39.55501,27.91935 -46.09791,52.40888 z" />
    <path
       style="fill:#ffffff;stroke:#000000;stroke-width:3.5999999;stroke-linecap:round;stroke-linejoin:round"
       inkscape:connector-curvature="0"
       id="path24"
       d="m 312.69431,446.95473 c 0,47.58977 -26.30396,68.16891 -58.75153,68.16891 -32.44757,0 -58.75153,-20.57914 -58.75153,-68.16891 0,-47.58977 26.30395,-104.16891 58.75153,-104.16891 32.44758,0 58.75153,56.57914 58.75153,104.16891 z" />
    <path
       style="fill:#ffffff;stroke:#000000;stroke-width:3.5999999;stroke-linecap:round;stroke-linejoin:round"
       inkscape:connector-curvature="0"
       id="path26"
       transform="translate(154.06516,-319.85786)"
       d="m 94.98164,714.05127 c 0,15.4126 -15.12478,27.90698 -33.78213,27.90698 -18.65735,0 -33.78213,-12.49438 -33.78213,-27.90698 0,-15.4126 15.12478,-27.90698 33.78213,-27.90698 18.65735,0 33.78213,12.49438 33.78213,27.90698 z" />
    <path
       style="fill:#ffffff;stroke:#000000;stroke-width:3.5999999;stroke-linecap:round;stroke-linejoin:round"
       inkscape:connector-curvature="0"
       id="path28"
       transform="translate(142.31486,-313.00351)"
       d="m 180.17136,708.66571 c 0,20.00934 -16.22077,36.23011 -36.23011,36.23011 -20.00934,0 -36.23011,-16.22077 -36.23011,-36.23011 0,-20.00934 16.22078,-36.23011 36.23011,-36.23011 20.00933,0 36.23011,16.22077 36.23011,36.23011 z" />
    <path
       inkscape:connector-curvature="0"
       id="path30"
       d="m 226.93557,482.4146 c 7.07005,7.12321 15.81836,10.40625 25.40625,10.40625 7.02172,0 13.59283,-1.76387 19.375,-5.5 l 1.53125,2.625 c -6.2766,4.02039 -13.40164,6 -20.90625,6 -1.11148,0 -2.21816,-0.039 -3.3125,-0.125 -0.7534,7.10379 -0.27662,13.20607 3.625,17.34375 l -2.625,2.46875 c -5.00415,-5.30693 -5.38193,-12.67342 -4.5625,-20.25 -7.6211,-1.28836 -14.67253,-4.78765 -20.5625,-10.625 0.67575,-0.78775 1.35793,-1.56292 2.03125,-2.34375 z" />
    <path
       style="stroke:#000000;stroke-width:3.5999999;stroke-linecap:round;stroke-linejoin:round"
       inkscape:connector-curvature="0"
       id="path32"
       d="m 235.51429,400.45272 c 0,4.48521 -3.63598,8.12118 -8.12118,8.12118 -4.4852,0 -8.12118,-3.63597 -8.12118,-8.12118 0,-4.48521 3.63597,-8.12118 8.12118,-8.12118 4.48521,0 8.12118,3.63598 8.12118,8.12118 z" />
    <path
       style="stroke:#000000;stroke-width:3.5999999;stroke-linecap:round;stroke-linejoin:round"
       inkscape:connector-curvature="0"
       id="path34"
       d="m 276.85849,399.71443 c 0,4.48521 -3.63597,8.12118 -8.12118,8.12118 -4.48521,0 -8.12118,-3.63597 -8.12118,-8.12118 0,-4.48521 3.63597,-8.12118 8.12118,-8.12118 4.48521,0 8.12118,3.63598 8.12118,8.12118 z" />
  </g>
  <path
     style="fill:#ffffff;stroke:#000000;stroke-width:3.5999999"
     inkscape:connector-curvature="0"
     id="path36"
     d="m 191.3855,203.37649 c 4.29451,-11.32589 0.26152,-21.18343 -7.43444,-30.15912 6.33808,1.55299 16.17763,3.66809 14.56264,12.82898 -1.13103,6.66102 -3.92852,12.8932 -7.1282,17.33014 z" />
  <path
     inkscape:connector-curvature="0"
     id="path38"
     d="m 184.80619,165.98907 c -10.16525,-1.66565 -12.95921,9.20952 -10.00374,15.89198 -10.01279,-10.34569 -2.89294,-22.27004 10.00374,-15.89198 z" />
</svg>
